<svg xmlns="http://www.w3.org/2000/svg" width="19.553" height="20.678" viewBox="0 0 19.553 20.678"><defs><style>.a{fill:#707070;}</style></defs><path class="a" d="M17.973.766a9.664,9.664,0,0,1,6.812,2.8V.766a.751.751,0,1,1,1.5,0v4.6a.765.765,0,0,1-.514.727L21.267,7.62a.749.749,0,0,1-.951-.486.77.77,0,0,1,.476-.97L24.12,5.036a8.116,8.116,0,0,0-11.625-.5A8.507,8.507,0,0,0,12,16.385a8.116,8.116,0,0,0,11.625.5,8.488,8.488,0,0,0,2.548-7.573.765.765,0,0,1,.608-.888.752.752,0,0,1,.871.62l0,.014a10.265,10.265,0,0,1,.135,1.66,9.778,9.778,0,1,1-19.553.027A9.863,9.863,0,0,1,17.973.766Z" transform="translate(-8.236 0)"/></svg>